<svg width="20" height="20" viewBox="0 0 20 20" fill="none" xmlns="http://www.w3.org/2000/svg">
<path d="M9.33389 0.0219591C6.76285 0.247098 4.37199 1.43599 2.64086 3.35018C0.909724 5.26437 -0.0336713 7.7623 -0.000110952 10.343V12C-0.000346207 13.1526 0.397672 14.2699 1.12658 15.1629C1.85549 16.0558 2.87052 16.6694 3.99989 16.9V19C3.99989 19.2652 4.10525 19.5195 4.29278 19.7071C4.48032 19.8946 4.73467 20 4.99989 20C5.26511 20 5.51946 19.8946 5.707 19.7071C5.89453 19.5195 5.99989 19.2652 5.99989 19V16.891C7.17938 16.644 8.23029 15.9801 8.95989 15.021C9.70607 16.5151 10.8533 17.7722 12.2732 18.6516C13.6932 19.5309 15.3297 19.9978 16.9999 20C17.2275 20.0001 17.4485 19.9227 17.6261 19.7803C17.8037 19.6379 17.9275 19.4392 17.9769 19.217L19.9769 10.217C19.9889 10.1451 19.9966 10.0727 19.9999 9.99996C19.9999 8.63062 19.7187 7.27587 19.1737 6.01966C18.6287 4.76345 17.8315 3.63257 16.8315 2.69709C15.8315 1.76161 14.6501 1.04147 13.3604 0.581306C12.0707 0.121143 10.7002 -0.0692389 9.33389 0.0219591ZM5.99989 14.816V12C5.99989 11.7347 5.89453 11.4804 5.707 11.2929C5.51946 11.1053 5.26511 11 4.99989 11C4.73467 11 4.48032 11.1053 4.29278 11.2929C4.10525 11.4804 3.99989 11.7347 3.99989 12V14.816C3.33267 14.5801 2.77033 14.1159 2.41226 13.5055C2.05418 12.8951 1.92342 12.1777 2.04309 11.4802C2.16276 10.7827 2.52516 10.15 3.06623 9.69385C3.6073 9.23771 4.2922 8.98753 4.99989 8.98753C5.70758 8.98753 6.39248 9.23771 6.93355 9.69385C7.47462 10.15 7.83701 10.7827 7.95668 11.4802C8.07636 12.1777 7.9456 12.8951 7.58752 13.5055C7.22944 14.1159 6.6671 14.5801 5.99989 14.816ZM16.2079 17.955C14.5004 17.7583 12.9247 16.9412 11.7802 15.659C10.6357 14.3767 10.0021 12.7187 9.99989 11V9.99996H17.9749L16.2079 17.955Z" fill="black"/>
</svg>
